<svg width="168" height="68" viewBox="0 0 168 68" fill="none" xmlns="http://www.w3.org/2000/svg">
<path d="M144.32 14.6831H150.347V26.4554C150.347 27.2402 150.489 27.9936 150.771 28.7156C151.085 29.4063 151.493 30.0184 151.996 30.5521C152.529 31.0544 153.141 31.4625 153.832 31.7764C154.554 32.0589 155.307 32.2002 156.092 32.2002C156.877 32.2002 157.615 32.0589 158.306 31.7764C159.028 31.4625 159.64 31.0544 160.142 30.5521C160.676 30.0184 161.084 29.4063 161.366 28.7156C161.68 27.9936 161.837 27.2402 161.837 26.4554V14.6831H167.865V38.2276C167.865 39.86 167.551 41.3826 166.923 42.7952C166.326 44.2393 165.494 45.495 164.427 46.5623C163.36 47.6297 162.104 48.4616 160.66 49.0581C159.247 49.6859 157.725 49.9998 156.092 49.9998C154.46 49.9998 152.922 49.6859 151.478 49.0581C150.065 48.4616 148.825 47.6297 147.758 46.5623C146.69 45.495 145.843 44.2393 145.215 42.7952C144.618 41.3826 144.32 39.86 144.32 38.2276H150.347C150.347 39.0124 150.489 39.7501 150.771 40.4408C151.085 41.1628 151.493 41.775 151.996 42.2773C152.529 42.8109 153.141 43.219 153.832 43.5016C154.554 43.8155 155.307 43.9725 156.092 43.9725C156.877 43.9725 157.615 43.8155 158.306 43.5016C159.028 43.219 159.64 42.8109 160.142 42.2773C160.676 41.775 161.084 41.1628 161.366 40.4408C161.68 39.7501 161.837 39.0124 161.837 38.2276V36.7678C160.079 37.741 158.164 38.2276 156.092 38.2276C154.46 38.2276 152.922 37.9294 151.478 37.3329C150.065 36.7051 148.825 35.8575 147.758 34.7901C146.69 33.7228 145.843 32.4827 145.215 31.0701C144.618 29.626 144.32 28.0878 144.32 26.4554V14.6831Z" fill="white"/>
<path d="M118.43 14.6831H124.458V26.4554C124.458 27.2402 124.599 27.9936 124.882 28.7156C125.196 29.4063 125.604 30.0184 126.106 30.5521C126.64 31.0544 127.252 31.4625 127.942 31.7764C128.664 32.0589 129.418 32.2002 130.203 32.2002C130.987 32.2002 131.725 32.0589 132.416 31.7764C133.138 31.4625 133.75 31.0544 134.252 30.5521C134.786 30.0184 135.194 29.4063 135.477 28.7156C135.791 27.9936 135.948 27.2402 135.948 26.4554V14.6831H141.975V26.4554C141.975 28.0878 141.661 29.626 141.033 31.0701C140.437 32.4827 139.605 33.7228 138.537 34.7901C137.47 35.8575 136.214 36.7051 134.77 37.3329C133.358 37.9294 131.835 38.2276 130.203 38.2276C128.57 38.2276 127.032 37.9294 125.588 37.3329C124.175 36.7051 122.935 35.8575 121.868 34.7901C120.801 33.7228 119.953 32.4827 119.325 31.0701C118.729 29.626 118.43 28.0878 118.43 26.4554V14.6831Z" fill="white"/>
<path d="M107.295 8.56152C108.519 8.56152 109.649 8.79697 110.685 9.26786C111.752 9.73875 112.678 10.3823 113.463 11.1985C114.279 11.9833 114.907 12.9094 115.347 13.9768C115.818 15.0127 116.053 16.1429 116.053 17.3672C116.053 18.5601 115.833 19.6745 115.394 20.7105C114.986 21.7151 114.421 22.6097 113.699 23.3946C114.421 24.1794 114.986 25.0898 115.394 26.1257C115.833 27.1303 116.053 28.229 116.053 29.4219C116.053 30.6463 115.818 31.7921 115.347 32.8594C114.907 33.8954 114.279 34.8215 113.463 35.6377C112.678 36.4225 111.752 37.0504 110.685 37.5213C109.649 37.9921 108.519 38.2276 107.295 38.2276H93.8743V32.5298H107.436C108.189 32.4042 108.817 32.0589 109.319 31.4939C109.853 30.8974 110.12 30.2068 110.12 29.4219C110.12 28.6057 109.853 27.8994 109.319 27.3029C108.786 26.7065 108.111 26.3769 107.295 26.3141H93.8743V20.5221H107.059C107.907 20.4907 108.629 20.1768 109.225 19.5803C109.822 18.9839 110.12 18.2619 110.12 17.4143C110.12 16.6294 109.869 15.9545 109.367 15.3894C108.864 14.8244 108.252 14.4633 107.53 14.3064H93.8743V8.56152H107.295Z" fill="white"/>
<path d="M67.9846 14.6831H74.012V26.4554C74.012 27.2402 74.1533 27.9936 74.4358 28.7156C74.7497 29.4063 75.1578 30.0184 75.6601 30.5521C76.1938 31.0544 76.806 31.4625 77.4966 31.7764C78.2186 32.0589 78.972 32.2002 79.7569 32.2002C80.5417 32.2002 81.2794 32.0589 81.97 31.7764C82.6921 31.4625 83.3042 31.0544 83.8065 30.5521C84.3402 30.0184 84.7483 29.4063 85.0308 28.7156C85.3448 27.9936 85.5017 27.2402 85.5017 26.4554V14.6831H91.5291V38.2276C91.5291 39.86 91.2152 41.3826 90.5873 42.7952C89.9909 44.2393 89.159 45.495 88.0916 46.5623C87.0243 47.6297 85.7686 48.4616 84.3245 49.0581C82.9118 49.6859 81.3893 49.9998 79.7569 49.9998C78.1244 49.9998 76.5862 49.6859 75.1421 49.0581C73.7295 48.4616 72.4895 47.6297 71.4221 46.5623C70.3548 45.495 69.5072 44.2393 68.8793 42.7952C68.2829 41.3826 67.9846 39.86 67.9846 38.2276H74.012C74.012 39.0124 74.1533 39.7501 74.4358 40.4408C74.7497 41.1628 75.1578 41.775 75.6601 42.2773C76.1938 42.8109 76.806 43.219 77.4966 43.5016C78.2186 43.8155 78.972 43.9725 79.7569 43.9725C80.5417 43.9725 81.2794 43.8155 81.97 43.5016C82.6921 43.219 83.3042 42.8109 83.8065 42.2773C84.3402 41.775 84.7483 41.1628 85.0308 40.4408C85.3448 39.7501 85.5017 39.0124 85.5017 38.2276V36.7678C83.7437 37.741 81.8288 38.2276 79.7569 38.2276C78.1244 38.2276 76.5862 37.9294 75.1421 37.3329C73.7295 36.7051 72.4895 35.8575 71.4221 34.7901C70.3548 33.7228 69.5072 32.4827 68.8793 31.0701C68.2829 29.626 67.9846 28.0878 67.9846 26.4554V14.6831Z" fill="white"/>
<path d="M65.6392 38.2276H59.6118V26.4554C59.6118 25.6705 59.4549 24.9328 59.1409 24.2422C58.8584 23.5201 58.4503 22.908 57.9166 22.4057C57.4143 21.872 56.8022 21.4639 56.0802 21.1814C55.3895 20.8675 54.6518 20.7105 53.867 20.7105C53.0822 20.7105 52.3287 20.8675 51.6067 21.1814C50.9161 21.4639 50.3039 21.872 49.7702 22.4057C49.2679 22.908 48.8598 23.5201 48.5459 24.2422C48.2634 24.9328 48.1221 25.6705 48.1221 26.4554V38.2276H42.0947V26.4554C42.0947 24.8229 42.393 23.3004 42.9894 21.8877C43.6173 20.4437 44.4649 19.188 45.5322 18.1206C46.5996 17.0533 47.8396 16.2213 49.2523 15.6249C50.6963 14.997 52.2346 14.6831 53.867 14.6831C55.4994 14.6831 57.0219 14.997 58.4346 15.6249C59.8787 16.2213 61.1344 17.0533 62.2017 18.1206C63.2691 19.188 64.101 20.4437 64.6974 21.8877C65.3253 23.3004 65.6392 24.8229 65.6392 26.4554V38.2276Z" fill="white"/>
<path d="M15.664 25.7242C15.3569 25.7625 15.0665 25.8266 14.7613 25.9212C14.1281 26.1177 13.4317 25.7763 13.3016 25.1262C13.2373 24.8043 13.3239 24.4635 13.5697 24.2459C14.3542 23.5515 15.0124 23.5581 16.0842 24.0877C16.2936 24.1912 16.4421 24.3863 16.4987 24.6129C16.6331 25.1503 16.2136 25.6556 15.664 25.7242Z" fill="#48683F"/>
<path d="M11.4156 17.8367H1.427L8.91843 0H18.1935L35.6735 38.1706H25.685L13.9127 12.129H12.8425L11.4156 17.8367Z" fill="#FC693F"/>
<circle cx="7.49143" cy="31.0359" r="7.49143" fill="#FC693F"/>
<path d="M24.1324 59.644C24.5164 59.828 24.8204 60.092 25.0444 60.436C25.2764 60.78 25.3924 61.176 25.3924 61.624C25.3924 62.296 25.1564 62.86 24.6844 63.316C24.2124 63.772 23.6364 64 22.9564 64H19.3324V55.6H22.6924C23.3484 55.6 23.9044 55.82 24.3604 56.26C24.8164 56.7 25.0444 57.244 25.0444 57.892C25.0444 58.636 24.7404 59.22 24.1324 59.644ZM22.6924 56.644H20.4484V59.212H22.6924C23.0444 59.212 23.3404 59.088 23.5804 58.84C23.8204 58.592 23.9404 58.288 23.9404 57.928C23.9404 57.576 23.8164 57.276 23.5684 57.028C23.3284 56.772 23.0364 56.644 22.6924 56.644ZM22.9564 62.956C23.3324 62.956 23.6484 62.824 23.9044 62.56C24.1604 62.296 24.2884 61.972 24.2884 61.588C24.2884 61.212 24.1564 60.892 23.8924 60.628C23.6364 60.364 23.3244 60.232 22.9564 60.232H20.4484V62.956H22.9564ZM30.8761 58H31.9201V64H30.8761V63.136C30.4521 63.816 29.8041 64.156 28.9321 64.156C28.2281 64.156 27.6641 63.936 27.2401 63.496C26.8161 63.048 26.6041 62.444 26.6041 61.684V58H27.6481V61.624C27.6481 62.112 27.7801 62.492 28.0441 62.764C28.3081 63.028 28.6721 63.16 29.1361 63.16C29.6561 63.16 30.0761 63 30.3961 62.68C30.7161 62.352 30.8761 61.852 30.8761 61.18V58ZM37.6975 58H38.8135L36.3655 64.372C36.1095 65.052 35.7495 65.568 35.2855 65.92C34.8295 66.28 34.3015 66.44 33.7015 66.4V65.428C34.4375 65.484 34.9775 65.076 35.3215 64.204L35.4295 63.976L32.8135 58H33.9295L35.9695 62.704L37.6975 58ZM47.5933 59.644C47.9773 59.828 48.2813 60.092 48.5053 60.436C48.7373 60.78 48.8533 61.176 48.8533 61.624C48.8533 62.296 48.6173 62.86 48.1453 63.316C47.6733 63.772 47.0973 64 46.4173 64H42.7933V55.6H46.1533C46.8093 55.6 47.3653 55.82 47.8213 56.26C48.2773 56.7 48.5053 57.244 48.5053 57.892C48.5053 58.636 48.2013 59.22 47.5933 59.644ZM46.1533 56.644H43.9093V59.212H46.1533C46.5053 59.212 46.8013 59.088 47.0413 58.84C47.2813 58.592 47.4013 58.288 47.4013 57.928C47.4013 57.576 47.2773 57.276 47.0293 57.028C46.7893 56.772 46.4973 56.644 46.1533 56.644ZM46.4173 62.956C46.7933 62.956 47.1093 62.824 47.3653 62.56C47.6213 62.296 47.7493 61.972 47.7493 61.588C47.7493 61.212 47.6173 60.892 47.3533 60.628C47.0973 60.364 46.7853 60.232 46.4173 60.232H43.9093V62.956H46.4173ZM50.8353 61.48C50.9393 62.016 51.1833 62.432 51.5673 62.728C51.9593 63.024 52.4393 63.172 53.0073 63.172C53.7993 63.172 54.3753 62.88 54.7353 62.296L55.6233 62.8C55.0393 63.704 54.1593 64.156 52.9833 64.156C52.0313 64.156 51.2553 63.86 50.6553 63.268C50.0633 62.668 49.7673 61.912 49.7673 61C49.7673 60.096 50.0593 59.344 50.6433 58.744C51.2273 58.144 51.9833 57.844 52.9113 57.844C53.7913 57.844 54.5073 58.156 55.0593 58.78C55.6193 59.396 55.8993 60.14 55.8993 61.012C55.8993 61.164 55.8873 61.32 55.8633 61.48H50.8353ZM52.9113 58.828C52.3513 58.828 51.8873 58.988 51.5193 59.308C51.1513 59.62 50.9233 60.04 50.8353 60.568H54.8433C54.7553 60 54.5313 59.568 54.1713 59.272C53.8113 58.976 53.3913 58.828 52.9113 58.828ZM60.1876 59.008H58.5916V62.26C58.5916 62.556 58.6476 62.768 58.7596 62.896C58.8796 63.016 59.0596 63.08 59.2996 63.088C59.5396 63.088 59.8356 63.08 60.1876 63.064V64C59.2756 64.12 58.6076 64.048 58.1836 63.784C57.7596 63.512 57.5476 63.004 57.5476 62.26V59.008H56.3596V58H57.5476V56.632L58.5916 56.32V58H60.1876V59.008ZM64.3712 59.008H62.7752V62.26C62.7752 62.556 62.8312 62.768 62.9432 62.896C63.0632 63.016 63.2432 63.08 63.4832 63.088C63.7232 63.088 64.0192 63.08 64.3712 63.064V64C63.4592 64.12 62.7912 64.048 62.3672 63.784C61.9432 63.512 61.7312 63.004 61.7312 62.26V59.008H60.5432V58H61.7312V56.632L62.7752 56.32V58H64.3712V59.008ZM66.0345 61.48C66.1385 62.016 66.3825 62.432 66.7665 62.728C67.1585 63.024 67.6385 63.172 68.2065 63.172C68.9985 63.172 69.5745 62.88 69.9345 62.296L70.8225 62.8C70.2385 63.704 69.3585 64.156 68.1825 64.156C67.2305 64.156 66.4545 63.86 65.8545 63.268C65.2625 62.668 64.9665 61.912 64.9665 61C64.9665 60.096 65.2585 59.344 65.8425 58.744C66.4265 58.144 67.1825 57.844 68.1105 57.844C68.9905 57.844 69.7065 58.156 70.2585 58.78C70.8185 59.396 71.0985 60.14 71.0985 61.012C71.0985 61.164 71.0865 61.32 71.0625 61.48H66.0345ZM68.1105 58.828C67.5505 58.828 67.0865 58.988 66.7185 59.308C66.3505 59.62 66.1225 60.04 66.0345 60.568H70.0425C69.9545 60 69.7305 59.568 69.3705 59.272C69.0105 58.976 68.5905 58.828 68.1105 58.828ZM73.3426 59.008C73.6866 58.264 74.3106 57.892 75.2146 57.892V58.984C74.7026 58.96 74.2626 59.096 73.8946 59.392C73.5266 59.688 73.3426 60.164 73.3426 60.82V64H72.2986V58H73.3426V59.008ZM76.0406 64.132C75.8246 64.132 75.6406 64.056 75.4886 63.904C75.3366 63.752 75.2606 63.568 75.2606 63.352C75.2606 63.136 75.3366 62.952 75.4886 62.8C75.6406 62.648 75.8246 62.572 76.0406 62.572C76.2646 62.572 76.4486 62.648 76.5926 62.8C76.7446 62.952 76.8206 63.136 76.8206 63.352C76.8206 63.568 76.7446 63.752 76.5926 63.904C76.4486 64.056 76.2646 64.132 76.0406 64.132Z" fill="#5CEABB"/>
<path d="M86.0444 64.156C85.2604 64.156 84.5884 63.972 84.0284 63.604C83.4764 63.236 83.0884 62.732 82.8644 62.092L83.8244 61.54C84.1524 62.556 84.9004 63.064 86.0684 63.064C86.6444 63.064 87.0844 62.948 87.3884 62.716C87.6924 62.476 87.8444 62.16 87.8444 61.768C87.8444 61.368 87.6924 61.068 87.3884 60.868C87.0844 60.668 86.5764 60.456 85.8644 60.232C85.5124 60.12 85.2444 60.032 85.0604 59.968C84.8764 59.896 84.6444 59.792 84.3644 59.656C84.0924 59.512 83.8884 59.368 83.7524 59.224C83.6164 59.072 83.4924 58.876 83.3804 58.636C83.2764 58.396 83.2244 58.124 83.2244 57.82C83.2244 57.092 83.4804 56.516 83.9924 56.092C84.5044 55.66 85.1284 55.444 85.8644 55.444C86.5284 55.444 87.1044 55.612 87.5924 55.948C88.0884 56.284 88.4604 56.728 88.7084 57.28L87.7724 57.82C87.4124 56.956 86.7764 56.524 85.8644 56.524C85.4084 56.524 85.0404 56.636 84.7604 56.86C84.4804 57.084 84.3404 57.388 84.3404 57.772C84.3404 58.14 84.4724 58.42 84.7364 58.612C85.0004 58.804 85.4564 59.004 86.1044 59.212C86.3364 59.284 86.5004 59.336 86.5964 59.368C86.6924 59.4 86.8404 59.456 87.0404 59.536C87.2484 59.616 87.4004 59.68 87.4964 59.728C87.5924 59.776 87.7204 59.844 87.8804 59.932C88.0484 60.02 88.1724 60.104 88.2524 60.184C88.3324 60.264 88.4244 60.364 88.5284 60.484C88.6404 60.596 88.7204 60.712 88.7684 60.832C88.8164 60.952 88.8564 61.092 88.8884 61.252C88.9284 61.404 88.9484 61.568 88.9484 61.744C88.9484 62.48 88.6804 63.068 88.1444 63.508C87.6084 63.94 86.9084 64.156 86.0444 64.156ZM91.0345 61.48C91.1385 62.016 91.3825 62.432 91.7665 62.728C92.1585 63.024 92.6385 63.172 93.2065 63.172C93.9985 63.172 94.5745 62.88 94.9345 62.296L95.8225 62.8C95.2385 63.704 94.3585 64.156 93.1825 64.156C92.2305 64.156 91.4545 63.86 90.8545 63.268C90.2625 62.668 89.9665 61.912 89.9665 61C89.9665 60.096 90.2585 59.344 90.8425 58.744C91.4265 58.144 92.1825 57.844 93.1105 57.844C93.9905 57.844 94.7065 58.156 95.2585 58.78C95.8185 59.396 96.0985 60.14 96.0985 61.012C96.0985 61.164 96.0865 61.32 96.0625 61.48H91.0345ZM93.1105 58.828C92.5505 58.828 92.0865 58.988 91.7185 59.308C91.3505 59.62 91.1225 60.04 91.0345 60.568H95.0425C94.9545 60 94.7305 59.568 94.3705 59.272C94.0105 58.976 93.5905 58.828 93.1105 58.828ZM97.2986 64V55.24H98.3426V64H97.2986ZM99.9353 64V55.24H100.979V64H99.9353ZM106.472 59.62C106.472 59.852 106.588 60.04 106.82 60.184C107.052 60.32 107.332 60.432 107.66 60.52C107.988 60.6 108.316 60.696 108.644 60.808C108.972 60.912 109.252 61.096 109.484 61.36C109.716 61.616 109.832 61.948 109.832 62.356C109.832 62.9 109.62 63.336 109.196 63.664C108.78 63.992 108.244 64.156 107.588 64.156C107.004 64.156 106.504 64.028 106.088 63.772C105.672 63.516 105.376 63.176 105.2 62.752L106.1 62.236C106.196 62.524 106.376 62.752 106.64 62.92C106.904 63.088 107.22 63.172 107.588 63.172C107.932 63.172 108.216 63.108 108.44 62.98C108.664 62.844 108.776 62.636 108.776 62.356C108.776 62.124 108.66 61.94 108.428 61.804C108.196 61.66 107.916 61.548 107.588 61.468C107.26 61.38 106.932 61.28 106.604 61.168C106.276 61.056 105.996 60.872 105.764 60.616C105.532 60.36 105.416 60.032 105.416 59.632C105.416 59.112 105.616 58.684 106.016 58.348C106.424 58.012 106.932 57.844 107.54 57.844C108.028 57.844 108.46 57.956 108.836 58.18C109.22 58.396 109.508 58.7 109.7 59.092L108.824 59.584C108.608 59.072 108.18 58.816 107.54 58.816C107.244 58.816 106.992 58.888 106.784 59.032C106.576 59.168 106.472 59.364 106.472 59.62ZM117.548 57.844C118.22 57.844 118.764 58.064 119.18 58.504C119.596 58.936 119.804 59.524 119.804 60.268V64H118.76V60.304C118.76 59.84 118.64 59.48 118.4 59.224C118.16 58.968 117.84 58.84 117.44 58.84C116.992 58.84 116.632 58.992 116.36 59.296C116.096 59.592 115.964 60.048 115.964 60.664V64H114.92V60.304C114.92 59.84 114.804 59.48 114.572 59.224C114.348 58.968 114.04 58.84 113.648 58.84C113.208 58.84 112.84 58.992 112.544 59.296C112.256 59.6 112.112 60.056 112.112 60.664V64H111.068V58H112.112V58.804C112.52 58.164 113.116 57.844 113.9 57.844C114.708 57.844 115.296 58.184 115.664 58.864C116.08 58.184 116.708 57.844 117.548 57.844ZM126.22 58H127.264V64H126.22V62.968C125.7 63.76 124.944 64.156 123.952 64.156C123.112 64.156 122.396 63.852 121.804 63.244C121.212 62.628 120.916 61.88 120.916 61C120.916 60.12 121.212 59.376 121.804 58.768C122.396 58.152 123.112 57.844 123.952 57.844C124.944 57.844 125.7 58.24 126.22 59.032V58ZM124.084 63.148C124.692 63.148 125.2 62.944 125.608 62.536C126.016 62.12 126.22 61.608 126.22 61C126.22 60.392 126.016 59.884 125.608 59.476C125.2 59.06 124.692 58.852 124.084 58.852C123.484 58.852 122.98 59.06 122.572 59.476C122.164 59.884 121.96 60.392 121.96 61C121.96 61.608 122.164 62.12 122.572 62.536C122.98 62.944 123.484 63.148 124.084 63.148ZM129.889 59.008C130.233 58.264 130.857 57.892 131.761 57.892V58.984C131.249 58.96 130.809 59.096 130.441 59.392C130.073 59.688 129.889 60.164 129.889 60.82V64H128.845V58H129.889V59.008ZM136.188 59.008H134.592V62.26C134.592 62.556 134.648 62.768 134.76 62.896C134.88 63.016 135.06 63.08 135.3 63.088C135.54 63.088 135.836 63.08 136.188 63.064V64C135.276 64.12 134.608 64.048 134.184 63.784C133.76 63.512 133.548 63.004 133.548 62.26V59.008H132.36V58H133.548V56.632L134.592 56.32V58H136.188V59.008ZM137.851 61.48C137.955 62.016 138.199 62.432 138.583 62.728C138.975 63.024 139.455 63.172 140.023 63.172C140.815 63.172 141.391 62.88 141.751 62.296L142.639 62.8C142.055 63.704 141.175 64.156 139.999 64.156C139.047 64.156 138.271 63.86 137.671 63.268C137.079 62.668 136.783 61.912 136.783 61C136.783 60.096 137.075 59.344 137.659 58.744C138.243 58.144 138.999 57.844 139.927 57.844C140.807 57.844 141.523 58.156 142.075 58.78C142.635 59.396 142.915 60.14 142.915 61.012C142.915 61.164 142.903 61.32 142.879 61.48H137.851ZM139.927 58.828C139.367 58.828 138.903 58.988 138.535 59.308C138.167 59.62 137.939 60.04 137.851 60.568H141.859C141.771 60 141.547 59.568 141.187 59.272C140.827 58.976 140.407 58.828 139.927 58.828ZM145.159 59.008C145.503 58.264 146.127 57.892 147.031 57.892V58.984C146.519 58.96 146.079 59.096 145.711 59.392C145.343 59.688 145.159 60.164 145.159 60.82V64H144.115V58H145.159V59.008ZM147.857 64.132C147.641 64.132 147.457 64.056 147.305 63.904C147.153 63.752 147.077 63.568 147.077 63.352C147.077 63.136 147.153 62.952 147.305 62.8C147.457 62.648 147.641 62.572 147.857 62.572C148.081 62.572 148.265 62.648 148.409 62.8C148.561 62.952 148.637 63.136 148.637 63.352C148.637 63.568 148.561 63.752 148.409 63.904C148.265 64.056 148.081 64.132 147.857 64.132Z" fill="#FF823B"/>
</svg>
