<svg width="168" height="50" viewBox="0 0 168 50" fill="none" xmlns="http://www.w3.org/2000/svg">
<path d="M144.32 14.6831H150.347V26.4554C150.347 27.2402 150.489 27.9936 150.771 28.7156C151.085 29.4063 151.493 30.0184 151.996 30.5521C152.529 31.0544 153.141 31.4625 153.832 31.7764C154.554 32.0589 155.307 32.2002 156.092 32.2002C156.877 32.2002 157.615 32.0589 158.306 31.7764C159.028 31.4625 159.64 31.0544 160.142 30.5521C160.676 30.0184 161.084 29.4063 161.366 28.7156C161.68 27.9936 161.837 27.2402 161.837 26.4554V14.6831H167.865V38.2276C167.865 39.86 167.551 41.3826 166.923 42.7952C166.326 44.2393 165.494 45.495 164.427 46.5623C163.36 47.6297 162.104 48.4616 160.66 49.0581C159.247 49.6859 157.725 49.9998 156.092 49.9998C154.46 49.9998 152.922 49.6859 151.478 49.0581C150.065 48.4616 148.825 47.6297 147.758 46.5623C146.69 45.495 145.843 44.2393 145.215 42.7952C144.618 41.3826 144.32 39.86 144.32 38.2276H150.347C150.347 39.0124 150.489 39.7501 150.771 40.4408C151.085 41.1628 151.493 41.775 151.996 42.2773C152.529 42.8109 153.141 43.219 153.832 43.5016C154.554 43.8155 155.307 43.9725 156.092 43.9725C156.877 43.9725 157.615 43.8155 158.306 43.5016C159.028 43.219 159.64 42.8109 160.142 42.2773C160.676 41.775 161.084 41.1628 161.366 40.4408C161.68 39.7501 161.837 39.0124 161.837 38.2276V36.7678C160.079 37.741 158.164 38.2276 156.092 38.2276C154.46 38.2276 152.922 37.9294 151.478 37.3329C150.065 36.7051 148.825 35.8575 147.758 34.7901C146.69 33.7228 145.843 32.4827 145.215 31.0701C144.618 29.626 144.32 28.0878 144.32 26.4554V14.6831Z" fill="white"/>
<path d="M118.43 14.6831H124.458V26.4554C124.458 27.2402 124.599 27.9936 124.882 28.7156C125.196 29.4063 125.604 30.0184 126.106 30.5521C126.64 31.0544 127.252 31.4625 127.942 31.7764C128.664 32.0589 129.418 32.2002 130.203 32.2002C130.987 32.2002 131.725 32.0589 132.416 31.7764C133.138 31.4625 133.75 31.0544 134.252 30.5521C134.786 30.0184 135.194 29.4063 135.477 28.7156C135.791 27.9936 135.948 27.2402 135.948 26.4554V14.6831H141.975V26.4554C141.975 28.0878 141.661 29.626 141.033 31.0701C140.437 32.4827 139.605 33.7228 138.537 34.7901C137.47 35.8575 136.214 36.7051 134.77 37.3329C133.358 37.9294 131.835 38.2276 130.203 38.2276C128.57 38.2276 127.032 37.9294 125.588 37.3329C124.175 36.7051 122.935 35.8575 121.868 34.7901C120.801 33.7228 119.953 32.4827 119.325 31.0701C118.729 29.626 118.43 28.0878 118.43 26.4554V14.6831Z" fill="white"/>
<path d="M107.295 8.56152C108.519 8.56152 109.649 8.79697 110.685 9.26786C111.752 9.73875 112.678 10.3823 113.463 11.1985C114.279 11.9833 114.907 12.9094 115.347 13.9768C115.818 15.0127 116.053 16.1429 116.053 17.3672C116.053 18.5601 115.833 19.6745 115.394 20.7105C114.986 21.7151 114.421 22.6097 113.699 23.3946C114.421 24.1794 114.986 25.0898 115.394 26.1257C115.833 27.1303 116.053 28.229 116.053 29.4219C116.053 30.6463 115.818 31.7921 115.347 32.8594C114.907 33.8954 114.279 34.8215 113.463 35.6377C112.678 36.4225 111.752 37.0504 110.685 37.5213C109.649 37.9921 108.519 38.2276 107.295 38.2276H93.8743V32.5298H107.436C108.189 32.4042 108.817 32.0589 109.319 31.4939C109.853 30.8974 110.12 30.2068 110.12 29.4219C110.12 28.6057 109.853 27.8994 109.319 27.3029C108.786 26.7065 108.111 26.3769 107.295 26.3141H93.8743V20.5221H107.059C107.907 20.4907 108.629 20.1768 109.225 19.5803C109.822 18.9839 110.12 18.2619 110.12 17.4143C110.12 16.6294 109.869 15.9545 109.367 15.3894C108.864 14.8244 108.252 14.4633 107.53 14.3064H93.8743V8.56152H107.295Z" fill="white"/>
<path d="M67.9846 14.6831H74.012V26.4554C74.012 27.2402 74.1533 27.9936 74.4358 28.7156C74.7497 29.4063 75.1578 30.0184 75.6601 30.5521C76.1938 31.0544 76.806 31.4625 77.4966 31.7764C78.2186 32.0589 78.972 32.2002 79.7569 32.2002C80.5417 32.2002 81.2794 32.0589 81.97 31.7764C82.6921 31.4625 83.3042 31.0544 83.8065 30.5521C84.3402 30.0184 84.7483 29.4063 85.0308 28.7156C85.3448 27.9936 85.5017 27.2402 85.5017 26.4554V14.6831H91.5291V38.2276C91.5291 39.86 91.2152 41.3826 90.5873 42.7952C89.9909 44.2393 89.159 45.495 88.0916 46.5623C87.0243 47.6297 85.7686 48.4616 84.3245 49.0581C82.9118 49.6859 81.3893 49.9998 79.7569 49.9998C78.1244 49.9998 76.5862 49.6859 75.1421 49.0581C73.7295 48.4616 72.4895 47.6297 71.4221 46.5623C70.3548 45.495 69.5072 44.2393 68.8793 42.7952C68.2829 41.3826 67.9846 39.86 67.9846 38.2276H74.012C74.012 39.0124 74.1533 39.7501 74.4358 40.4408C74.7497 41.1628 75.1578 41.775 75.6601 42.2773C76.1938 42.8109 76.806 43.219 77.4966 43.5016C78.2186 43.8155 78.972 43.9725 79.7569 43.9725C80.5417 43.9725 81.2794 43.8155 81.97 43.5016C82.6921 43.219 83.3042 42.8109 83.8065 42.2773C84.3402 41.775 84.7483 41.1628 85.0308 40.4408C85.3448 39.7501 85.5017 39.0124 85.5017 38.2276V36.7678C83.7437 37.741 81.8288 38.2276 79.7569 38.2276C78.1244 38.2276 76.5862 37.9294 75.1421 37.3329C73.7295 36.7051 72.4895 35.8575 71.4221 34.7901C70.3548 33.7228 69.5072 32.4827 68.8793 31.0701C68.2829 29.626 67.9846 28.0878 67.9846 26.4554V14.6831Z" fill="white"/>
<path d="M65.6392 38.2276H59.6118V26.4554C59.6118 25.6705 59.4549 24.9328 59.1409 24.2422C58.8584 23.5201 58.4503 22.908 57.9166 22.4057C57.4143 21.872 56.8022 21.4639 56.0802 21.1814C55.3895 20.8675 54.6518 20.7105 53.867 20.7105C53.0822 20.7105 52.3287 20.8675 51.6067 21.1814C50.9161 21.4639 50.3039 21.872 49.7702 22.4057C49.2679 22.908 48.8598 23.5201 48.5459 24.2422C48.2634 24.9328 48.1221 25.6705 48.1221 26.4554V38.2276H42.0947V26.4554C42.0947 24.8229 42.393 23.3004 42.9894 21.8877C43.6173 20.4437 44.4649 19.188 45.5322 18.1206C46.5996 17.0533 47.8396 16.2213 49.2523 15.6249C50.6963 14.997 52.2346 14.6831 53.867 14.6831C55.4994 14.6831 57.0219 14.997 58.4346 15.6249C59.8787 16.2213 61.1344 17.0533 62.2017 18.1206C63.2691 19.188 64.101 20.4437 64.6974 21.8877C65.3253 23.3004 65.6392 24.8229 65.6392 26.4554V38.2276Z" fill="white"/>
<path d="M15.664 25.7242C15.3569 25.7625 15.0665 25.8266 14.7613 25.9212C14.1281 26.1177 13.4317 25.7763 13.3016 25.1262C13.2373 24.8043 13.3239 24.4635 13.5697 24.2459C14.3542 23.5515 15.0124 23.5581 16.0842 24.0877C16.2936 24.1912 16.4421 24.3863 16.4987 24.6129C16.6331 25.1503 16.2136 25.6556 15.664 25.7242Z" fill="#48683F"/>
<path d="M11.4156 17.8367H1.427L8.91843 0H18.1935L35.6735 38.1706H25.685L13.9127 12.129H12.8425L11.4156 17.8367Z" fill="#FC693F"/>
<circle cx="7.49143" cy="31.0359" r="7.49143" fill="#FC693F"/>
</svg>
